<?xml version="1.0" encoding="UTF-8" standalone="no"?>
<!-- Created with Inkscape (http://www.inkscape.org/) -->

<svg
   xmlns:dc="http://purl.org/dc/elements/1.1/"
   xmlns:cc="http://creativecommons.org/ns#"
   xmlns:rdf="http://www.w3.org/1999/02/22-rdf-syntax-ns#"
   xmlns:svg="http://www.w3.org/2000/svg"
   xmlns="http://www.w3.org/2000/svg"
   xmlns:sodipodi="http://sodipodi.sourceforge.net/DTD/sodipodi-0.dtd"
   xmlns:inkscape="http://www.inkscape.org/namespaces/inkscape"
   width="200"
   height="200"
   viewBox="0 0 52.916665 52.916668"
   version="1.1"
   id="svg8"
   inkscape:version="0.92.4 (5da689c313, 2019-01-14)"
   sodipodi:docname="char.svg">
  <defs
     id="defs2" />
  <sodipodi:namedview
     id="base"
     pagecolor="#ffffff"
     bordercolor="#666666"
     borderopacity="1.0"
     inkscape:pageopacity="0.0"
     inkscape:pageshadow="2"
     inkscape:zoom="7.919596"
     inkscape:cx="127.67028"
     inkscape:cy="103.54341"
     inkscape:document-units="mm"
     inkscape:current-layer="layer1"
     showgrid="false"
     inkscape:window-width="3840"
     inkscape:window-height="2066"
     inkscape:window-x="-11"
     inkscape:window-y="-11"
     inkscape:window-maximized="1"
     units="px" />
  <metadata
     id="metadata5">
    <rdf:RDF>
      <cc:Work
         rdf:about="">
        <dc:format>image/svg+xml</dc:format>
        <dc:type
           rdf:resource="http://purl.org/dc/dcmitype/StillImage" />
        <dc:title></dc:title>
      </cc:Work>
    </rdf:RDF>
  </metadata>
  <g
     inkscape:label="Ebene 1"
     inkscape:groupmode="layer"
     id="layer1"
     transform="translate(0,-244.08332)">
    <path
       style="opacity:1;fill:#efd5d5;fill-opacity:1;stroke:#0b0b0b;stroke-width:0.52916664;stroke-linecap:butt;stroke-miterlimit:1;stroke-dasharray:none;stroke-dashoffset:0;stroke-opacity:1"
       d="m 9.0596184,267.02176 c 1.1341046,1.53269 1.0549126,3.36147 1.6785376,6.24591 0.408215,1.88809 1.249611,3.1943 1.954231,5.1339 1.022684,10.34549 13.382839,10.26662 19.301637,4.0094 1.09361,-1.45197 0.835353,-4.15754 2.23247,-6.70055 0.986234,-1.79513 5.084368,-0.0974 6.548501,-10.45365 0.814284,-29.3284 -37.5861923,-21.17226 -31.7153766,1.76499 z"
       id="path826"
       inkscape:connector-curvature="0"
       sodipodi:nodetypes="csccscc" />
    <path
       style="opacity:1;fill:#fefefe;fill-opacity:1;stroke:#000000;stroke-width:0.26458332;stroke-linecap:butt;stroke-miterlimit:1;stroke-dasharray:none;stroke-dashoffset:0;stroke-opacity:1"
       d="m 25.276623,263.2702 c -1.898941,1.94001 -6.158773,1.85878 -5.998677,1.09221 0.934397,-1.73633 2.054684,-1.98406 5.998677,-1.09221 z"
       id="path814"
       inkscape:connector-curvature="0"
       sodipodi:nodetypes="ccc" />
    <path
       style="fill:none;stroke:#000000;stroke-width:0.26458332px;stroke-linecap:butt;stroke-linejoin:miter;stroke-opacity:1"
       d="m 14.033689,265.04921 c -0.272798,4.22097 -4.8561704,4.0168 -0.283974,7.91786"
       id="path821"
       inkscape:connector-curvature="0"
       sodipodi:nodetypes="cc" />
    <path
       style="fill:none;stroke:#000000;stroke-width:0.44979167;stroke-linecap:butt;stroke-linejoin:miter;stroke-miterlimit:4;stroke-dasharray:none;stroke-opacity:1"
       d="m 17.261855,262.14875 c 3.301682,0.20176 3.091963,-3.53662 9.154782,-1.49577"
       id="path823"
       inkscape:connector-curvature="0"
       sodipodi:nodetypes="cc" />
    <path
       style="fill:none;stroke:#000000;stroke-width:0.44979167;stroke-linecap:butt;stroke-linejoin:miter;stroke-miterlimit:4;stroke-dasharray:none;stroke-opacity:1"
       d="m 12.981563,262.84117 c -1.349086,0.17511 -3.2437354,1.45123 -4.3380954,1.47592"
       id="path825"
       inkscape:connector-curvature="0"
       sodipodi:nodetypes="cc" />
    <path
       style="fill:#ffffff;fill-opacity:1;stroke:#000000;stroke-width:0.26458332;stroke-linecap:round;stroke-linejoin:miter;stroke-miterlimit:4;stroke-dasharray:none;stroke-opacity:1"
       d="m 13.912618,265.08169 c -0.905678,-0.23885 -0.799417,-0.22934 -1.923687,0.0266 -1.248108,0.24805 -2.2481694,0.86226 -2.2914784,1.41741 0.18505,0.61815 0.6417714,0.65752 2.1615504,0.44885 0.632,-0.18505 1.071718,-0.34057 1.848541,-0.66737"
       id="path822"
       inkscape:connector-curvature="0"
       sodipodi:nodetypes="ccccc" />
    <path
       style="fill:none;stroke:#000000;stroke-width:0.26458332px;stroke-linecap:butt;stroke-linejoin:miter;stroke-opacity:1"
       d="m 13.748885,278.83352 c 0.05512,-0.50397 -0.0079,-1.16149 0.224423,-1.47647 1.12041,-0.44535 2.07801,-0.38922 2.70489,-0.43704 1.560506,0.0848 3.025669,0.39125 4.429411,0.73233"
       id="path824"
       inkscape:connector-curvature="0"
       sodipodi:nodetypes="cccc" />
    <path
       style="fill:#e2d9d9;fill-opacity:1;stroke:#0b0b0b;stroke-width:0.26458332;stroke-linecap:round;stroke-linejoin:round;stroke-miterlimit:4;stroke-dasharray:none;stroke-opacity:1"
       d="m 36.026322,264.53423 c 0.590648,-0.49372 0.679118,-1.39261 1.972561,-1.44103 2.003066,-0.0837 2.186466,0.70092 2.976566,2.19698 0.52763,3.93299 -1.84246,7.37292 -3.661647,8.9415 -1.244461,0.37305 -2.011994,-0.0288 -2.616303,-0.46657"
       id="path827"
       inkscape:connector-curvature="0"
       sodipodi:nodetypes="ccccc" />
    <path
       style="fill:none;stroke:#000000;stroke-width:0.26458332px;stroke-linecap:butt;stroke-linejoin:miter;stroke-opacity:1"
       d="m 36.590912,267.92771 c 0.14392,0.35094 0.714943,0.48046 0.683925,1.01294 -0.0949,0.54178 -1.213453,2.39696 -0.494934,2.86131 2.935868,1.15043 3.797181,-7.66615 0.968561,-6.37835 -0.965328,0.64128 -1.275194,2.21871 -1.157552,2.5041"
       id="path829"
       inkscape:connector-curvature="0"
       sodipodi:nodetypes="ccccc" />
    <path
       style="fill:none;stroke:#000000;stroke-width:0.26458332px;stroke-linecap:butt;stroke-linejoin:miter;stroke-opacity:1"
       d="m 14.584931,270.49483 c 1.503398,0.60507 1.365985,0.83582 1.870887,1.35305"
       id="path831"
       inkscape:connector-curvature="0"
       sodipodi:nodetypes="cc" />
    <path
       style="fill:none;stroke:#000000;stroke-width:0.26458332px;stroke-linecap:butt;stroke-linejoin:miter;stroke-opacity:1"
       d="m 21.275022,262.91106 c -1.214921,0.16416 -1.067677,1.71236 -0.434313,1.82912 1.111322,0.1386 1.958695,-1.66016 0.434313,-1.82912 z"
       id="path833"
       inkscape:connector-curvature="0"
       sodipodi:nodetypes="ccc" />
    <path
       style="fill:none;stroke:#000000;stroke-width:0.26458332px;stroke-linecap:butt;stroke-linejoin:miter;stroke-opacity:1"
       d="m 11.751664,265.15854 c -1.214921,0.16416 -1.067677,1.71236 -0.434313,1.82913 1.111322,0.13859 1.958695,-1.66017 0.434313,-1.82913 z"
       id="path833-2"
       inkscape:connector-curvature="0"
       sodipodi:nodetypes="ccc" />
    <path
       style="fill:none;stroke:#000000;stroke-width:0.26458332px;stroke-linecap:butt;stroke-linejoin:miter;stroke-opacity:1"
       d="m 37.313801,274.23168 c -2.699033,7.76656 0.805823,9.78558 3.176897,17.42941"
       id="path850"
       inkscape:connector-curvature="0"
       sodipodi:nodetypes="cc" />
    <path
       style="fill:none;stroke:#000000;stroke-width:0.26458332px;stroke-linecap:butt;stroke-linejoin:miter;stroke-opacity:1"
       d="m 19.465773,286.51116 c 0.296613,4.28504 1.860751,2.50276 -0.614214,6.66183"
       id="path852"
       inkscape:connector-curvature="0"
       sodipodi:nodetypes="cc" />
  </g>
</svg>
