<svg xmlns="http://www.w3.org/2000/svg" xmlns:xlink="http://www.w3.org/1999/xlink" viewBox="0 0 74.083 74.083" height="280" width="280"><defs><linearGradient gradientUnits="userSpaceOnUse" y2="61.338" x2="86.609" y1="84.19" x1="99.403" id="i" xlink:href="#a"/><linearGradient id="a"><stop offset="0" stop-color="#299c41"/><stop offset="1" stop-color="#16ea40" stop-opacity=".998"/></linearGradient><linearGradient gradientUnits="userSpaceOnUse" y2="71.636" x2="62.974" y1="91.481" x1="73.225" id="j" xlink:href="#a"/><linearGradient gradientUnits="userSpaceOnUse" y2="93.134" x2="75.194" y1="109.571" x1="91.727" id="k" xlink:href="#a"/><linearGradient gradientUnits="userSpaceOnUse" y2="85.493" x2="45.482" y1="105.137" x1="60.221" id="l" xlink:href="#a"/><linearGradient gradientUnits="userSpaceOnUse" y2="114.661" x2="61.276" y1="127.69" x1="81.085" id="m" xlink:href="#a"/><linearGradient gradientUnits="userSpaceOnUse" y2="110.652" x2="28.85" y1="123.481" x1="46.097" id="n" xlink:href="#a"/><linearGradient gradientUnits="userSpaceOnUse" y2="138.114" x2="45.118" y1="154.118" x1="70.304" id="o" xlink:href="#a"/><linearGradient gradientUnits="userSpaceOnUse" y2="139.552" x2="17.908" y1="157.259" x1="33.191" id="p" xlink:href="#a"/><linearGradient y2="159.875" x2="41.84" y1="178.317" x1="63.139" gradientUnits="userSpaceOnUse" id="q" xlink:href="#a"/><linearGradient gradientUnits="userSpaceOnUse" y2="166.573" x2="12.158" y1="188.089" x1="28.639" id="r" xlink:href="#a"/><linearGradient gradientUnits="userSpaceOnUse" y2="185.029" x2="48.106" y1="209.952" x1="59.802" id="s" xlink:href="#a"/><linearGradient gradientUnits="userSpaceOnUse" y2="200.005" x2="15.606" y1="221.186" x1="37.859" id="t" xlink:href="#a"/><linearGradient gradientUnits="userSpaceOnUse" y2="201.344" x2="57.693" y1="229.875" x1="71.573" id="u" xlink:href="#a"/><linearGradient gradientUnits="userSpaceOnUse" y2="232.12" x2="23.264" y1="250.027" x1="54.812" id="v" xlink:href="#a"/><linearGradient y2="215.501" x2="80.72" y1="256.794" x1="94.284" gradientUnits="userSpaceOnUse" id="w" xlink:href="#a"/><linearGradient gradientUnits="userSpaceOnUse" y2="261.949" x2="45.895" y1="273.843" x1="89.69" id="x" xlink:href="#a"/><linearGradient gradientUnits="userSpaceOnUse" y2="235.828" x2="102.912" y1="272.577" x1="121.166" id="y" xlink:href="#a"/><linearGradient gradientUnits="userSpaceOnUse" y2="278.013" x2="74.802" y1="294.45" x1="118.12" id="z" xlink:href="#a"/><linearGradient gradientUnits="userSpaceOnUse" y2="62.836" x2="156.955" y1="85.333" x1="185.208" id="A" xlink:href="#a"/><linearGradient gradientUnits="userSpaceOnUse" y2="74.434" x2="190.008" y1="92.86" x1="202.093" id="B" xlink:href="#a"/><linearGradient gradientUnits="userSpaceOnUse" y2="93.95" x2="167.578" y1="105.857" x1="195.774" id="C" xlink:href="#a"/><linearGradient gradientUnits="userSpaceOnUse" y2="83.67" x2="205.939" y1="109.184" x1="219.491" id="D" xlink:href="#a"/><linearGradient y2="114.572" x2="178.112" y1="129.502" x1="213.555" gradientUnits="userSpaceOnUse" id="E" xlink:href="#a"/><linearGradient gradientUnits="userSpaceOnUse" y2="106.288" x2="224.998" y1="131.518" x1="235.303" id="F" xlink:href="#a"/><linearGradient gradientUnits="userSpaceOnUse" y2="137.778" x2="192.036" y1="155.921" x1="224.394" id="G" xlink:href="#a"/><linearGradient gradientUnits="userSpaceOnUse" y2="133.635" x2="233.679" y1="165.479" x1="248.286" id="H" xlink:href="#a"/><linearGradient gradientUnits="userSpaceOnUse" y2="166.193" x2="200.179" y1="186.698" x1="228.297" id="I" xlink:href="#a"/><linearGradient gradientUnits="userSpaceOnUse" y2="163.373" x2="237.638" y1="191.248" x1="255.79" id="J" xlink:href="#a"/><linearGradient gradientUnits="userSpaceOnUse" y2="188.669" x2="198.562" y1="215.6" x1="222.65" id="K" xlink:href="#a"/><linearGradient gradientUnits="userSpaceOnUse" y2="201.713" x2="230.208" y1="220.706" x1="245.478" id="L" xlink:href="#a"/><linearGradient gradientUnits="userSpaceOnUse" y2="195.814" x2="189.663" y1="234.84" x1="208.484" id="M" xlink:href="#a"/><linearGradient gradientUnits="userSpaceOnUse" y2="230.189" x2="221.068" y1="252.395" x1="231.582" id="N" xlink:href="#a"/><linearGradient gradientUnits="userSpaceOnUse" y2="215.65" x2="170.458" y1="253.542" x1="184.226" id="O" xlink:href="#a"/><linearGradient gradientUnits="userSpaceOnUse" y2="260.943" x2="189.875" y1="279.653" x1="198.441" id="P" xlink:href="#a"/><linearGradient gradientUnits="userSpaceOnUse" y2="237.463" x2="145.532" y1="265.527" x1="162.206" id="Q" xlink:href="#a"/><linearGradient gradientUnits="userSpaceOnUse" y2="275.144" x2="154.684" y1="296.311" x1="174.391" id="R" xlink:href="#a"/><linearGradient gradientTransform="matrix(.37547 0 0 .11145 .957 221.132)" gradientUnits="userSpaceOnUse" y2="116.141" x2="140.065" y1="115.949" x1="148.523" id="h" xlink:href="#b"/><linearGradient id="b"><stop offset="0" stop-color="#d8d393"/><stop offset="1" stop-color="#fffae0"/></linearGradient><linearGradient gradientTransform="matrix(.07944 0 0 .11171 45.356 221.103)" gradientUnits="userSpaceOnUse" y2="140.177" x2="109.746" y1="142.984" x1="132.863" id="g" xlink:href="#c"/><linearGradient id="c"><stop offset="0" stop-color="#605c34"/><stop offset="1" stop-color="#a49c6d"/></linearGradient><linearGradient gradientTransform="matrix(1.25 0 0 1.2381 -100.851 -55.176)" gradientUnits="userSpaceOnUse" y2="242.092" x2="94.704" y1="272.086" x1="122.07" id="e" xlink:href="#d"/><linearGradient id="d"><stop offset="0" stop-color="#4682b4"/><stop offset="1" stop-color="#9146ff"/></linearGradient><linearGradient gradientTransform="translate(7.938)" gradientUnits="userSpaceOnUse" y2="235.274" x2="55.333" y1="235.274" x1="45.892" id="f" xlink:href="#b"/></defs><path d="M36.962 225.563a26.458 34.396 0 00-26.379 34.465 26.458 34.396 0 0026.485 34.326A26.458 34.396 0 0063.5 259.958v-.138a26.458 34.396 0 00-26.538-34.257zm.01 3.275a23.151 31.12 0 0123.22 30.995v.125a23.151 31.12 0 01-23.127 31.12 23.151 31.12 0 01-23.175-31.057 23.151 31.12 0 0123.082-31.183z" fill="url(#e)" transform="translate(0 -222.917)"/><path d="M57.258 237.248c0 1.058-3.191-1.193-3.428.257.01 1.8 6.123-.09 9.3.805a56.91 56.91 0 01.14-5.912c-1.835-.359-4.106-.029-6.187 0z" fill="url(#f)" transform="translate(0 -222.917)"/><path d="M53.854 236.51a13.69 13.69 0 00-.012.845c.389-1.149 3.408.863 3.416-.107-.601-.57-2.684-.681-3.404-.737" fill="url(#g)" transform="translate(0 -222.917)"/><path d="M57.083 9.482c2.054 0 4.182-.38 6.188 0-.088 1.664-.228 2.924-.142 5.911-2.671-.568-5.28.003-7.921.006" fill="none" stroke="#000" stroke-width=".054"/><path d="M10.998 230.494c.55 2.006-.107 4.23-.107 6.196 3.15.108 6.194-.562 9.78-.21 4.661.458 9.713.52 14.516.28 11.106-.557 21.035-.664 22.071.488l-.167-4.601-.028-1.603c-1.007-.932-10.808-1.113-21.855-.468-4.82.281-9.82-.343-14.522-.492-4.17-.133-6.577.481-9.688.41z" fill="url(#h)" stroke="#000" stroke-width=".054" stroke-linejoin="round" transform="translate(0 -222.917)"/><path d="M57.258 14.331c.001.75-1.741-.242-2.842-.258-.848-.013-.93 1.304.792 1.325" fill="none" stroke="#000" stroke-width=".054"/><path d="M53.83 14.588c.005-.383-.002-.621.024-.994" fill="none" stroke="#000" stroke-width=".054" stroke-linecap="round"/><text transform="matrix(.97638 0 0 1.02419 0 -222.917)" y="229.421" x="18.798" style="line-height:1.25" font-weight="400" font-size="1.385" font-family="sans-serif" letter-spacing="0" word-spacing="0" stroke-width=".029"><tspan style="-inkscape-font-specification:arial" y="229.421" x="18.798" font-size="4.233" font-family="arial">ich bin ein langer...</tspan></text><text transform="matrix(.84326 0 0 1.18588 0 -222.917)" y="199.767" x="71.269" style="line-height:1.25" font-weight="400" font-size="1.196" font-family="sans-serif" letter-spacing="0" word-spacing="0" stroke-width=".529" paint-order="stroke fill markers"><tspan style="-inkscape-font-specification:'arial Bold';text-align:center" y="199.767" x="71.269" font-weight="700" font-size="3.988" font-family="arial" text-anchor="middle">99</tspan></text><path d="M185.208 85.333c125.616 131.991-33.833 202.727-76.968 201.254" fill="none" stroke="#773b03" stroke-width="5.292" stroke-linecap="round" transform="matrix(.02263 0 0 .02457 11.787 6.203)"/><path d="M79.375 85.333c-125.616 131.991 33.833 202.727 76.968 201.254" fill="none" stroke="#85460c" stroke-width="5.292" stroke-linecap="round" transform="matrix(.02263 0 0 .02457 11.787 6.203)"/><path d="M112.668 56.94c-29.043 9.297-31.258 9.98-35.515 31.062 27.102.564 14.764-3.021 35.515-31.062z" fill="url(#i)" transform="matrix(.02263 0 0 .02457 11.787 6.203)"/><path d="M75.763 61.008c-15.985 16.196-21.855 23.347-8.235 36.49 15.859-9.228 3.711-12.169 8.235-36.49z" fill="url(#j)" transform="matrix(.02263 0 0 .02457 11.787 6.203)"/><path d="M105.662 89.901c-16.378 19.09-23.665 23.234-40.595 13.203C75.268 90.26 79.792 95.545 105.662 89.9z" fill="url(#k)" transform="matrix(.02263 0 0 .02457 11.787 6.203)"/><path d="M53.987 68.966c-12.142 26.143-17.682 36.445-.768 46.417 16.573-11.96 2.668-22.6.768-46.417z" fill="url(#l)" transform="matrix(.02263 0 0 .02457 11.787 6.203)"/><path d="M94.684 111.653c-14.854 18.286-29.363 23.644-45.538 12.574 12.44-15.114 19.751-7.962 45.538-12.574z" fill="url(#m)" transform="matrix(.02263 0 0 .02457 11.787 6.203)"/><path d="M28.381 91.275c-4.395 26.104-6.747 39.94 12.285 44.767 14.816-16.794-3.321-19.763-12.285-44.767z" fill="url(#n)" transform="matrix(.02263 0 0 .02457 11.787 6.203)"/><path d="M81.2 133.929c-18.735 22.244-25.397 28.745-45.316 21.03 9.178-25.48 26.936-14.607 45.316-21.03z" fill="url(#o)" transform="matrix(.02263 0 0 .02457 11.787 6.203)"/><path d="M12.478 121.3c1.499 28.546-.85 43.043 19.4 45.458 9.31-26.682-10.056-24.178-19.4-45.457z" fill="url(#p)" transform="matrix(.02263 0 0 .02457 11.787 6.203)"/><path d="M70.304 154.118c-8.285 27.537-16.039 36.405-37.366 35.194 3.275-30.63 12.847-14.493 37.366-35.194z" fill="url(#q)" transform="matrix(.02263 0 0 .02457 11.787 6.203)"/><path d="M3.983 154.407c2.417 28.066 9.681 40.962 29.757 37.377-4.281-24.731-15.476-19.377-29.757-37.377z" fill="url(#r)" transform="matrix(.02263 0 0 .02457 11.787 6.203)"/><path d="M68.486 177.432c-6.225 28.85-5.362 35.757-26.287 40.05-8.025-24.41 9.943-16.71 26.287-40.05z" fill="url(#s)" transform="matrix(.02263 0 0 .02457 11.787 6.203)"/><path d="M3.381 192.642c16.761 26.85 22.178 32.707 39.82 27.636-12.756-23.495-7.038-11.81-39.82-27.636z" fill="url(#t)" transform="matrix(.02263 0 0 .02457 11.787 6.203)"/><path d="M70.246 187.493c8.073 29.222 15.111 36.636-9.79 53.494-12.174-20.625 2.173-19.931 9.79-53.494z" fill="url(#u)" transform="matrix(.02263 0 0 .02457 11.787 6.203)"/><path d="M12.049 227.318c23.381 26.677 34.576 33.53 49.3 16.397-15.487-20.55-28.347-6.107-49.3-16.397z" fill="url(#v)" transform="matrix(.02263 0 0 .02457 11.787 6.203)"/><path d="M82.269 205.111c20.82 37.373 22.54 39.61 4.353 57.93-17.003-25.12-7.893-6.408-4.353-57.93z" fill="url(#w)" transform="matrix(.02263 0 0 .02457 11.787 6.203)"/><path d="M30.958 263.882c23.212 13.878 46.384 21.31 61.643 3.242-17.174-16.797-29.016-4.887-61.643-3.242z" fill="url(#x)" transform="matrix(.02263 0 0 .02457 11.787 6.203)"/><path d="M100.72 220.726c28.764 33.015 30.528 37.977 12.675 56.53-21.718-22.311-6.129-7.528-12.675-56.53z" fill="url(#y)" transform="matrix(.02263 0 0 .02457 11.787 6.203)"/><path d="M60.857 283.988c24.506 11.44 48.315 16.472 61.652-3.057-18.796-14.96-29.363-1.905-61.652 3.057z" fill="url(#z)" transform="matrix(.02263 0 0 .02457 11.787 6.203)"/><path d="M152.056 56.35c29.042 9.297 31.258 9.98 35.515 31.062-27.102.564-14.764-3.021-35.515-31.062z" fill="url(#A)" transform="matrix(.02263 0 0 .02457 11.787 6.203)"/><path d="M188.82 61.008c15.986 16.196 21.855 23.347 8.235 36.49-15.858-9.227-3.71-12.169-8.234-36.49z" fill="url(#B)" transform="matrix(.02263 0 0 .02457 11.787 6.203)"/><path d="M158.921 89.901c16.378 19.09 23.665 23.234 40.596 13.203C189.315 90.26 184.79 95.545 158.92 89.9z" fill="url(#C)" transform="matrix(.02263 0 0 .02457 11.787 6.203)"/><path d="M210.597 68.966c12.142 26.143 17.682 36.445.768 46.417-16.574-11.96-2.668-22.6-.768-46.417z" fill="url(#D)" transform="matrix(.02263 0 0 .02457 11.787 6.203)"/><path d="M169.899 111.653c14.854 18.286 29.363 23.644 45.538 12.574-12.44-15.114-19.75-7.962-45.538-12.574z" fill="url(#E)" transform="matrix(.02263 0 0 .02457 11.787 6.203)"/><path d="M236.202 91.275c4.395 26.104 6.747 39.94-12.285 44.767-14.815-16.794 3.322-19.763 12.285-44.767z" fill="url(#F)" transform="matrix(.02263 0 0 .02457 11.787 6.203)"/><path d="M183.384 133.929c18.735 22.244 25.396 28.745 45.316 21.03-9.178-25.48-26.936-14.607-45.316-21.03z" fill="url(#G)" transform="matrix(.02263 0 0 .02457 11.787 6.203)"/><path d="M252.105 121.3c-1.499 28.546.85 43.043-19.4 45.458-9.31-26.682 10.056-24.178 19.4-45.457z" fill="url(#H)" transform="matrix(.02263 0 0 .02457 11.787 6.203)"/><path d="M194.28 154.118c8.284 27.537 16.038 36.405 37.365 35.194-3.274-30.63-12.847-14.493-37.366-35.194z" fill="url(#I)" transform="matrix(.02263 0 0 .02457 11.787 6.203)"/><path d="M260.6 154.407c-2.417 28.066-9.68 40.962-29.756 37.377 4.28-24.731 15.475-19.377 29.756-37.377z" fill="url(#J)" transform="matrix(.02263 0 0 .02457 11.787 6.203)"/><path d="M196.098 177.432c6.225 28.85 5.361 35.757 26.287 40.05 8.024-24.41-9.944-16.71-26.287-40.05z" fill="url(#K)" transform="matrix(.02263 0 0 .02457 11.787 6.203)"/><path d="M261.202 192.642c-16.76 26.85-22.178 32.707-39.82 27.636 12.757-23.495 7.038-11.81 39.82-27.636z" fill="url(#L)" transform="matrix(.02263 0 0 .02457 11.787 6.203)"/><path d="M194.338 187.493c-8.074 29.222-15.112 36.636 9.79 53.494 12.173-20.625-2.174-19.931-9.79-53.494z" fill="url(#M)" transform="matrix(.02263 0 0 .02457 11.787 6.203)"/><path d="M252.535 227.318c-23.382 26.677-34.577 33.53-49.301 16.397 15.488-20.55 28.347-6.107 49.3-16.397z" fill="url(#N)" transform="matrix(.02263 0 0 .02457 11.787 6.203)"/><path d="M182.314 205.111c-20.82 37.373-22.539 39.61-4.353 57.93 17.003-25.12 7.893-6.408 4.353-57.93z" fill="url(#O)" transform="matrix(.02263 0 0 .02457 11.787 6.203)"/><path d="M233.626 263.882c-23.213 13.878-46.384 21.31-61.643 3.242 17.174-16.797 29.016-4.887 61.643-3.242z" fill="url(#P)" transform="matrix(.02263 0 0 .02457 11.787 6.203)"/><path d="M163.864 220.726c-28.765 33.015-30.528 37.977-12.676 56.53 21.719-22.311 6.13-7.528 12.676-56.53z" fill="url(#Q)" transform="matrix(.02263 0 0 .02457 11.787 6.203)"/><path d="M203.726 283.988c-24.506 11.44-48.314 16.472-61.652-3.057 18.796-14.96 29.363-1.905 61.652 3.057z" fill="url(#R)" transform="matrix(.02263 0 0 .02457 11.787 6.203)"/><text transform="matrix(.84326 0 0 1.18588 0 -222.917)" y="198.185" x="17.539" style="line-height:1.25" font-weight="400" font-size="1.196" font-family="sans-serif" letter-spacing="0" word-spacing="0" fill="#fff" stroke="#000" stroke-width=".529" stroke-linecap="round" stroke-linejoin="round" paint-order="stroke fill markers"><tspan style="line-height:3.25;-inkscape-font-specification:'arial Bold';text-align:center" y="198.185" x="17.539" font-weight="700" font-size="3.988" font-family="arial" text-anchor="middle" fill="#1f1717" stroke="#fff">gL</tspan></text><path d="M25.998 13.127v.107a16.404 26.458 0 00-15.08 26.352 16.404 26.458 0 0015.08 26.36v.098h13.23v-.107a16.404 26.458 0 0015.08-26.351 16.404 26.458 0 00-15.08-26.36v-.099H27.32z" fill="none"/></svg>